<svg xmlns="http://www.w3.org/2000/svg" width="27.435" height="25.583" viewBox="0 0 27.435 25.583"><g transform="translate(0.75 1.061)"><line x1="7.03" transform="translate(1.21 3.41)" fill="none" stroke="#e6484b" stroke-linecap="round" stroke-linejoin="round" stroke-width="1.5"/><path d="M438.31,821.743l-3.41,3.41,3.41,3.41" transform="translate(-434.9 -821.743)" fill="none" stroke="#e6484b" stroke-linecap="round" stroke-linejoin="round" stroke-width="1.5"/><g transform="translate(2.175 6.718)"><path d="M417.314,842.854h0a1.2,1.2,0,0,1-1.182-1.429l.755-3.963h-.856a.791.791,0,0,1-.74-1.071l.461-1.22a.792.792,0,0,1,.741-.512h.821l2.968-4.306a3.283,3.283,0,0,1,2.7-1.418h7.929a3.282,3.282,0,0,1,2.619,1.3l3.333,4.419h.875a.793.793,0,0,1,.741.512l.461,1.22a.791.791,0,0,1-.741,1.071h-.741l.615,4.007a1.2,1.2,0,0,1-1.188,1.385h-.021v1.951a1.184,1.184,0,0,1-1.183,1.184H433.5a1.184,1.184,0,0,1-1.183-1.184v-1.951H421.637v1.951a1.184,1.184,0,0,1-1.183,1.184H418.5a1.184,1.184,0,0,1-1.183-1.184Z" transform="translate(-415.24 -828.935)" fill="none" stroke="#e6484b" stroke-linecap="round" stroke-miterlimit="10" stroke-width="1.5"/><path d="M420.189,835.955h12.39a.432.432,0,0,0,.387-.677l-2.2-2.982a2.554,2.554,0,0,0-2.056-1h-5a2.533,2.533,0,0,0-2.164,1.163l-1.756,2.852A.434.434,0,0,0,420.189,835.955Z" transform="translate(-414.482 -828.536)" fill="none" stroke="#e6484b" stroke-linecap="round" stroke-miterlimit="10" stroke-width="1.5"/><g transform="translate(4.367 9.448)"><path d="M429.249,838.478l.8-1.076,2.207-.386" transform="translate(-417.238 -837.016)" fill="none" stroke="#e6484b" stroke-miterlimit="10" stroke-width="1.5"/><path d="M421.982,838.478l-.8-1.076-2.207-.386" transform="translate(-418.975 -837.016)" fill="none" stroke="#e6484b" stroke-miterlimit="10" stroke-width="1.5"/></g></g></g></svg>