<svg xmlns="http://www.w3.org/2000/svg" xmlns:xlink="http://www.w3.org/1999/xlink" width="47.491" height="14.775" viewBox="0 0 47.491 14.775"><defs><clipPath id="a"><rect width="47.491" height="14.775" fill="none"/></clipPath></defs><g clip-path="url(#a)"><path d="M348.439,863.595l-5.819,13.726h3.667l1.006-2.694h5.314l1.066,2.694h3.681l-5.614-13.726Zm-.193,8.377,1.743-4.712,1.707,4.712Z" transform="translate(-342.444 -863.071)" fill="#d40029" fill-rule="evenodd"/><path d="M363.246,873.514l-3.236-9.919h-3.722l5.2,13.726H364.8l5.291-13.726h-3.664Z" transform="translate(-343.399 -863.071)" fill="#d40029" fill-rule="evenodd"/><g clip-path="url(#a)"><path d="M392.626,864.522c0-.283-.244-.386-.5-.386h-.457v1.32h.237V864.9h.173l.305.552h.287l-.355-.578a.352.352,0,0,0,.305-.356m-.715.191v-.375h.214c.125,0,.264.035.264.18s-.154.2-.293.2Z" transform="translate(-345.872 -863.109)" fill="#d40029" fill-rule="evenodd"/><path d="M392.075,863.595a1.163,1.163,0,1,0,1.178,1.168,1.167,1.167,0,0,0-1.178-1.168m0,2.158a.989.989,0,1,1,.992-.99.993.993,0,0,1-.992.99" transform="translate(-345.818 -863.071)" fill="#d40029" fill-rule="evenodd"/><path d="M384.1,865.954a3.58,3.58,0,0,1,2.523,1.041l2.032-2.088a6.869,6.869,0,0,0-4.5-1.685c-2.558,0-5.31,1.26-5.31,4.3,0,2.48,1.764,3.349,3.508,3.911,1.8.584,2.851.934,2.851,1.981,0,1.1-.892,1.493-1.9,1.493a4.346,4.346,0,0,1-3.1-1.33l-2.032,2.086a7.238,7.238,0,0,0,5.137,1.977c2.714,0,5.254-1.416,5.254-4.574,0-2.734-2.4-3.51-4.265-4.111-1.3-.409-2.115-.718-2.115-1.628,0-1.085,1.068-1.378,1.92-1.378" transform="translate(-344.928 -863.045)" fill="#d40029" fill-rule="evenodd"/><rect width="3.334" height="13.726" transform="translate(28.017 0.524)" fill="#d40029"/><path d="M348.439,863.595l-5.819,13.726h3.667l1.006-2.694h5.314l1.066,2.694h3.681l-5.614-13.726Zm-.193,8.377,1.743-4.712,1.707,4.712Z" transform="translate(-342.444 -863.071)" fill="#d4002a"/><path d="M363.246,873.514l-3.236-9.919h-3.722l5.2,13.726H364.8l5.291-13.726h-3.664Z" transform="translate(-343.399 -863.071)" fill="#d4002a"/><path d="M392.626,864.522c0-.283-.244-.386-.5-.386h-.457v1.32h.237V864.9h.173l.305.552h.287l-.355-.578a.352.352,0,0,0,.305-.356m-.715.191v-.375h.214c.125,0,.264.035.264.18s-.154.2-.293.2Z" transform="translate(-345.872 -863.109)" fill="#d4002a"/><path d="M392.075,863.595a1.163,1.163,0,1,0,1.178,1.168,1.167,1.167,0,0,0-1.178-1.168m0,2.158a.989.989,0,1,1,.992-.99.993.993,0,0,1-.992.99" transform="translate(-345.818 -863.071)" fill="#d4002a"/><path d="M384.1,865.954a3.58,3.58,0,0,1,2.523,1.041l2.032-2.088a6.869,6.869,0,0,0-4.5-1.685c-2.558,0-5.31,1.26-5.31,4.3,0,2.48,1.764,3.349,3.508,3.911,1.8.584,2.851.934,2.851,1.981,0,1.1-.892,1.493-1.9,1.493a4.346,4.346,0,0,1-3.1-1.33l-2.032,2.086a7.238,7.238,0,0,0,5.137,1.977c2.714,0,5.254-1.416,5.254-4.574,0-2.734-2.4-3.51-4.265-4.111-1.3-.409-2.115-.718-2.115-1.628,0-1.085,1.068-1.378,1.92-1.378" transform="translate(-344.928 -863.045)" fill="#d4002a"/><rect width="3.334" height="13.726" transform="translate(28.017 0.524)" fill="#d4002a"/></g></g></svg>