<svg xmlns="http://www.w3.org/2000/svg" xmlns:xlink="http://www.w3.org/1999/xlink" width="75.248" height="15.951" viewBox="0 0 75.248 15.951"><defs><clipPath id="a"><rect width="75.248" height="15.951" fill="none"/></clipPath><clipPath id="b"><rect width="75.472" height="16.339" fill="none"/></clipPath></defs><g clip-path="url(#a)"><path d="M637.811,875.02h7.774V863.494Z" transform="translate(-628.162 -863.308)" fill="#f78b00"/><path d="M628.544,863.315v11.711l17.423-11.711Z" transform="translate(-628.544 -863.315)" fill="#ed5505"/><g transform="translate(-0.112 -0.194)"><g clip-path="url(#b)"><path d="M651.724,868.129a3.41,3.41,0,0,0,1.261-.182,1.364,1.364,0,0,0,.667-1.379,1.4,1.4,0,0,0-.788-1.3,2.572,2.572,0,0,0-1.186-.2h-1.626v3.063Zm.32,5.142a3.248,3.248,0,0,0,1.206-.182,1.675,1.675,0,0,0,0-3.085,3.18,3.18,0,0,0-1.359-.2h-1.835v3.464Zm-3.946,1.757V863.316h4.06c1.587,0,3.5.831,3.5,3.033a2.786,2.786,0,0,1-1.17,2.476,2.875,2.875,0,0,1,1.784,2.822c0,1.871-1.545,3.38-4,3.38Zm17.078-4.334V866.2h-1.926v4.494c0,1.6-.818,2.632-2.1,2.632s-2.092-1.033-2.092-2.632V866.2H657.13v4.494a4.039,4.039,0,1,0,8.046,0m5.347-2.907a2.787,2.787,0,0,0,0,5.537,2.783,2.783,0,0,0,0-5.537m0,7.305a4.547,4.547,0,0,1,0-9.09,3.753,3.753,0,0,1,2.5.951v-3.636h1.919V874.91h-1.873V874.1a3.715,3.715,0,0,1-2.545.99m9.879-1.768a2.794,2.794,0,0,1,0-5.55,2.79,2.79,0,0,1,0,5.55m2.542-7.124v.8A3.7,3.7,0,0,0,680.4,866a4.548,4.548,0,0,0,0,9.09,3.741,3.741,0,0,0,2.5-.951s.388,3.324-2.545,3.324a3.019,3.019,0,0,1-2.5-1.555l-1.538,1.082a4.843,4.843,0,0,0,7.074,1.258,4.4,4.4,0,0,0,1.44-3.5V866.2Zm4.933,3.536a2.389,2.389,0,0,1,2.274-1.975,2.353,2.353,0,0,1,2.252,1.975Zm5.305-2.5A4.112,4.112,0,0,0,690.148,866a4.394,4.394,0,0,0-4.309,4.56,4.335,4.335,0,0,0,4.357,4.528,4.576,4.576,0,0,0,3.49-1.74l-1.5-1.052a2.584,2.584,0,0,1-1.988,1.036,2.421,2.421,0,0,1-2.332-2h6.448a4.646,4.646,0,0,0-1.131-4.1m5.533,6.1c-.978,0-1.434-.477-1.434-1.507V867.9h1.876v-1.7h-1.876v-2.433h-1.923v8.06c0,2.041,1.17,3.265,3.054,3.265a6.432,6.432,0,0,0,.782-.055v-1.73c-.242.023-.381.026-.479.026m3-8.428c.143,0,.3-.038.3-.207,0-.151-.144-.193-.277-.193h-.228v.4Zm-.454-.608h.489c.263,0,.522.107.522.407a.373.373,0,0,1-.323.375l.375.609h-.306l-.326-.58h-.179v.58h-.252Zm.486,1.749A1.048,1.048,0,1,0,700.7,865a1.053,1.053,0,0,0,1.045,1.05m0-2.284A1.231,1.231,0,1,1,700.5,865a1.236,1.236,0,0,1,1.241-1.235" transform="translate(-627.626 -863.121)" fill="#00285f"/></g></g></g></svg>