<svg xmlns="http://www.w3.org/2000/svg" xmlns:xlink="http://www.w3.org/1999/xlink" width="60.121" height="15.726" viewBox="0 0 60.121 15.726"><defs><clipPath id="a"><rect width="60.121" height="15.726" fill="none"/></clipPath><clipPath id="b"><rect width="64.48" height="23.655" fill="none"/></clipPath></defs><g clip-path="url(#a)"><g transform="translate(-2.477 -3.922)"><g clip-path="url(#b)"><path d="M442.609,867.271a5.685,5.685,0,1,0,5.685,5.685,5.684,5.684,0,0,0-5.685-5.685m0,8.373a2.688,2.688,0,1,1,2.688-2.688,2.688,2.688,0,0,1-2.688,2.688" transform="translate(-421.355 -859.216)" fill="#c8102e"/><path d="M452.3,878.681h-2.083a.469.469,0,0,1-.467-.468V863.634a.469.469,0,0,1,.467-.468H452.3a.469.469,0,0,1,.468.468v14.578a.469.469,0,0,1-.468.468" transform="translate(-421.265 -859.245)" fill="#c8102e"/><path d="M452.3,878.681h-2.083a.469.469,0,0,1-.467-.468V863.634a.469.469,0,0,1,.467-.468H452.3a.469.469,0,0,1,.468.468v14.578a.469.469,0,0,1-.468.468" transform="translate(-421.265 -859.245)" fill="#c8102e"/><path d="M457.369,878.681h-2.083a.469.469,0,0,1-.467-.468V863.634a.469.469,0,0,1,.467-.468h2.083a.469.469,0,0,1,.467.468v14.578a.469.469,0,0,1-.467.468" transform="translate(-421.229 -859.245)" fill="#c8102e"/><path d="M435.91,875.651H435.8a.5.5,0,0,1-.5-.5V863.634a.469.469,0,0,0-.467-.468h-2.083a.469.469,0,0,0-.467.468v4.329a5.685,5.685,0,1,0,.834,9.5,3.5,3.5,0,0,0,2.656,1.205h.144a.468.468,0,0,0,.467-.467V876.12a.468.468,0,0,0-.467-.468m-6.3.021a2.688,2.688,0,1,1,2.689-2.688,2.688,2.688,0,0,1-2.689,2.688" transform="translate(-421.447 -859.245)" fill="#c8102e"/><path d="M471.321,875.625h-.112a.5.5,0,0,1-.5-.5v-7.688a.469.469,0,0,0-.467-.467h-2.084a.469.469,0,0,0-.467.467v1.057a3.8,3.8,0,0,0-2.667-1.217,5.685,5.685,0,1,0,3.5,10.164,3.5,3.5,0,0,0,2.656,1.205h.145a.469.469,0,0,0,.467-.467v-2.083a.469.469,0,0,0-.467-.468m-6.3.021a2.688,2.688,0,1,1,2.688-2.688,2.688,2.688,0,0,1-2.688,2.688" transform="translate(-421.198 -859.218)" fill="#c8102e"/><path d="M480.956,867.9a.406.406,0,0,0-.309-.376,5.172,5.172,0,0,0-2.028-.219h0a2.362,2.362,0,0,0-2.3,1.883v-1.756a.468.468,0,0,0-.467-.467h-2.083a.469.469,0,0,0-.467.467v10.753a.469.469,0,0,0,.467.468h2.083a.469.469,0,0,0,.467-.468v-5.27h0v0A2.657,2.657,0,0,1,479,870.28c.187,0,.594.042.614.042a.6.6,0,0,0,.547-.4l.76-1.87.005-.012h0a.386.386,0,0,0,.027-.14" transform="translate(-421.099 -859.218)" fill="#c8102e"/><path d="M482.089,876.917a1.85,1.85,0,1,1-1.849-1.891,1.871,1.871,0,0,1,1.849,1.891" transform="translate(-421.063 -859.161)" fill="#c8102e"/></g></g><text transform="translate(57.791 4.92)" fill="gray" font-size="1" font-family="SegoeUI, Segoe UI"><tspan x="0" y="0">TM</tspan></text></g></svg>