<svg xmlns="http://www.w3.org/2000/svg" width="56.458" height="18.806" viewBox="0 0 56.458 18.806"><path d="M69.227,58.547c-.455-.476-.183-1.423.05-2.492l.8-3.631H73.34l.592-2.7h-3.27l.58-2.7H68.161L66.142,56.3a4.91,4.91,0,0,0,.2,3.639c.576,1.086,2.543,2.122,5.033,1.468l.551-2.509C70.238,59.1,69.56,58.891,69.227,58.547ZM43.137,47.023l-1.47,6.7H36.259l1.467-6.7h-3.11L31.473,61.41H34.58l1.085-4.985h5.41L39.986,61.41h3.081l3.147-14.387Zm17.752,3.714A6.226,6.226,0,0,0,58.8,54.566L57.3,61.41h3.084l1.242-5.676a5.39,5.39,0,0,1,1.032-2.67c.706-.7,1.729-.74,2.958-.641l.593-2.7A6.031,6.031,0,0,0,60.889,50.737Zm24.067-1.016H75.332l-.59,2.7h5.583l-6.983,6.387-.567,2.6H82.4l.593-2.7H77.376l7.019-6.417Zm-32.482-.215a6.419,6.419,0,0,0-3.866,1.381c-3.155,2.406-4.722,10.736,2.054,10.736a8.943,8.943,0,0,0,5.067-1.535L54.5,58.077c-1.026.766-6.192,2.433-5.647-1.635h8.075c0-.008,1.029-3.261-.451-5.229A5.145,5.145,0,0,0,52.474,49.506Zm2.006,4.462H49.536A3.1,3.1,0,0,1,52.709,51.9a1.757,1.757,0,0,1,1.77,2.064m31.28,4.561h-.008a2.079,2.079,0,0,0-1.94,1.559,1.466,1.466,0,0,0-.036.327v0a1.21,1.21,0,0,0,1.29,1.217.007.007,0,0,0,.006,0,2.087,2.087,0,0,0,1.941-1.561,1.585,1.585,0,0,0,.035-.322A1.2,1.2,0,0,0,85.759,58.529Zm1.034,1.5a1.871,1.871,0,0,1-1.723,1.39h0a.987.987,0,0,1-1.072-1,1.272,1.272,0,0,1,.033-.285,1.866,1.866,0,0,1,1.711-1.389.994.994,0,0,1,1.087,1.009A1.344,1.344,0,0,1,86.793,60.03Zm-1.158-.692h-.682l-.326,1.487h.339l.1-.481h.268l.22.481h.4l-.259-.533a.617.617,0,0,0,.433-.464C86.2,59.518,86,59.338,85.636,59.338Zm.146.509a.292.292,0,0,1-.311.216h-.336l.094-.436h.329C85.727,59.627,85.813,59.7,85.782,59.847Z" transform="translate(-30.589 -47.023)"/><path d="M80.823,75.755H30.087l.583-2.61H81.409Z" transform="translate(-30.087 -56.949)" fill="#efcc31"/></svg>