<svg xmlns="http://www.w3.org/2000/svg" xmlns:xlink="http://www.w3.org/1999/xlink" width="80.37" height="25.317" viewBox="0 0 80.37 25.317"><defs><clipPath id="a"><rect width="80.37" height="25.317" fill="none"/></clipPath></defs><g clip-path="url(#a)"><g clip-path="url(#a)"><path d="M275.157,865.8l-.378,1.763H272.6l.377-1.763Zm23.689,9.717H296.73l2.14-9.827h2.141Zm-24.2-7.309s-1.045,4.913-1.592,7.321h-2.14c.462-2.432,1.592-7.321,1.592-7.321Zm4.852,1.556c.669.316.378,1.533.207,2.25-.17.778-.548,1.934-1.508,1.994-.524.025-1.217.122-1.509-.461a5.1,5.1,0,0,1,.547-3.187,1.944,1.944,0,0,1,2.262-.6Zm.438-1.7c-1.788-.182-3.709.17-4.633,1.872-.73,1.363-1.3,3.15-.584,4.718a2.2,2.2,0,0,0,1.569.986c1.568.255,3.332.17,4.487-1.241a6.111,6.111,0,0,0,1.155-4.974,2.176,2.176,0,0,0-1.994-1.362M260.2,865.692l-2.14,9.827H255.8l-2.408-5.984-1.3,5.984H249.8l2.14-9.827h2.372l2.261,5.923,1.3-5.923Zm3.842,6.385c-.778.291-2.2.024-2.687.985a.74.74,0,0,0,.086.815c.4.437,1.07.255,1.592-.025a2.21,2.21,0,0,0,1.009-1.738Zm-2.018,3.441c-2.6.377-2.785-1.046-2.809-1.557a2.717,2.717,0,0,1,1.094-2.25c.925-.669,2.408-.437,3.625-.778a.721.721,0,0,0,.291-1.07c-.255-.316-1.191-.292-1.568-.086-.292.146-.377.462-.486.754h-1.934a2.608,2.608,0,0,1,1.532-2.116,6.7,6.7,0,0,1,3.442-.17,1.6,1.6,0,0,1,1.191.9,2.466,2.466,0,0,1-.024,1.422l-.669,3.187s.024.207.547.17c-.086.352-.255,1.131-.316,1.447-.729.17-1.885.462-2.226-.438-.06-.17-.06-.146-.06-.146a2.808,2.808,0,0,1-1.63.73m32.191-3.441c-.778.291-2.2.024-2.688.985a.744.744,0,0,0,.086.815c.4.437,1.07.255,1.593-.025a2.215,2.215,0,0,0,1.009-1.738Zm-2.031,3.441c-2.6.377-2.785-1.046-2.809-1.557a2.715,2.715,0,0,1,1.095-2.25c.924-.669,2.408-.437,3.624-.778a.721.721,0,0,0,.292-1.07c-.256-.316-1.191-.292-1.569-.086-.292.146-.377.462-.486.754h-1.934a2.607,2.607,0,0,1,1.533-2.116,6.7,6.7,0,0,1,3.441-.17,1.6,1.6,0,0,1,1.191.9,2.465,2.465,0,0,1-.024,1.422l-.669,3.187s.024.207.547.17c-.085.352-.255,1.131-.316,1.447-.729.17-1.884.462-2.225-.438-.061-.17-.061-.146-.061-.146a2.924,2.924,0,0,1-1.63.73m-22.692-1.557c-.206,0-.256-.146-.206-.292l.863-3.964h1.095l.316-1.471h-1.095l.437-2.056h-2.261l-.426,2.056h-.839l-.316,1.471h.815l-.863,3.989a2.479,2.479,0,0,0,0,1.3.8.8,0,0,0,.815.583h2.347l.377-1.593Zm19.773-5.351a1.49,1.49,0,0,0-.815-.523c-.255-.086-2.225-.377-3.015.863v-.778c-.486.024-1.764,0-2.031,0-.06.316-1.508,6.992-1.592,7.32h2.176l1.045-4.888a1.352,1.352,0,0,1,1.156-1.01,1.387,1.387,0,0,1,.353,0,.637.637,0,0,1,.633.839l-1.046,5.084H288.3l1.009-5.084a2.334,2.334,0,0,0-.049-1.824" transform="translate(-227.281 -857.947)" fill="#074f1f"/><path d="M234.142,876.871c-.438-.024-1.655.377-2.117-.669a1.312,1.312,0,0,1,.378-1.533,2.062,2.062,0,0,1,2.225-.17Zm-1.108-5.607c0,.024,1.7-1.764,6.422,2.019,3.648,2.955,5.813,1.447,5.813,1.422l-.4,1.825s-1.738,1.848-6.4-1.849c-3.867-3.065-5.837-1.654-5.837-1.654s.4-1.848.4-1.763m.754-3.466c0,.024,1.7-1.764,6.422,2.018,3.648,2.956,5.812,1.447,5.812,1.423l-.4,1.824s-1.739,1.849-6.4-1.848c-3.843-3.077-5.837-1.654-5.837-1.654s.4-1.848.4-1.763m.754-3.417a1.97,1.97,0,0,1,1.362-.4c1.009,0,2.639.461,5.071,2.432,3.649,2.955,5.813,1.446,5.813,1.422l-.4,1.824s-1.739,1.849-6.4-1.848c-3.854-3.077-5.824-1.666-5.824-1.666s.377-1.849.377-1.764m10.677-.11c.438.024,1.655-.377,2.116.669a1.31,1.31,0,0,1-.377,1.533,2.063,2.063,0,0,1-2.226.17Z" transform="translate(-226.032 -857.827)" fill="#8fcf69"/><path d="M304.76,875.2c.122,0,.171-.024.171-.146s-.146-.122-.232-.122h-.206v.256Zm.316.547h-.231l-.206-.4h-.146v.4h-.207v-.924h.438c.232,0,.353.06.353.292,0,.17-.085.231-.255.255Zm.207-.461a.63.63,0,0,0-.632-.67.611.611,0,0,0-.632.67.632.632,0,0,0,1.265,0m-1.484,0a.863.863,0,1,1,.863.863.883.883,0,0,1-.863-.863" transform="translate(-231.054 -858.557)" fill="#074f1f"/></g></g></svg>