<svg xmlns="http://www.w3.org/2000/svg" xmlns:xlink="http://www.w3.org/1999/xlink" width="43.838" height="18.323" viewBox="0 0 43.838 18.323"><defs><clipPath id="a"><rect width="43.838" height="18.323" fill="none"/></clipPath></defs><g clip-path="url(#a)"><g clip-path="url(#a)"><path d="M177.833,864.946l-2.326,3.506h-.032c-.192-.223-1.211-1.53-1.211-1.53a12.428,12.428,0,0,1-4.27,2.1l1.88,2.454v.033c-.286.414-4.079,6.023-4.079,6.023h-.032v-8.062a25.665,25.665,0,0,1-3.76.255h-1.21v3.218s-.033.033-.033,0a4.214,4.214,0,0,0-.669-1.083c-1.593-1.689-7.074-2.295-7.871-3.187a.973.973,0,0,1-.223-.638c0-.733.446-1.178,1.657-1.21.893-.033,1.593.382,1.785,2.071h4.876a3.959,3.959,0,0,0-.064-.637c-.255-2.485-1.529-3.983-6.277-3.983-2.932,0-4.907.51-6.023,1.625a3.773,3.773,0,0,0-1.052,2.8,3.59,3.59,0,0,0,.829,2.454,9.408,9.408,0,0,0,3.76,1.721c1.911.574,3.824.988,4.174,1.5a1.2,1.2,0,0,1,.223.67c0,1.115-1.116,1.433-2.167,1.433a1.922,1.922,0,0,1-1.466-.541,2.829,2.829,0,0,1-.51-1.721l-5.035-.032c.063,1.529.223,2.676,1.178,3.5s2.677,1.338,5.673,1.338c4.3,0,6.468-1.179,7.2-3.059a.032.032,0,0,1,.033.032v2.645h9.623l2.74-3.92h.032c.223.319,2.614,3.92,2.614,3.92h10.26V868.9a.031.031,0,0,1,.033-.032h2.963v-3.92Zm5.29,12.651h0c-.032,0-4.333-5.958-4.333-5.958v-.033c.159-.222,1.88-2.613,1.88-2.644l.032-.032h2.422V877.6Z" transform="translate(-148.071 -861.345)" fill="#111119"/><path d="M174.4,866.367a16.547,16.547,0,0,1-9.464,2.39c-.351,0-.7,0-1.084-.033v-3.951c3.665.255,6.151-.382,7.648-1.5a5.11,5.11,0,0,0,1.306-1.466h5.162a9.449,9.449,0,0,1-3.569,4.557" transform="translate(-149.129 -861.173)" fill="#f47c22"/></g></g></svg>