<svg xmlns="http://www.w3.org/2000/svg" width="42.246" height="36.375" viewBox="0 0 42.246 36.375"><g transform="translate(0 6.177)" fill="none"><path d="M10.154,26.27V19.31H4.212a4.212,4.212,0,1,1,0-8.423h5.942V3.929a3.928,3.928,0,1,1,7.856,0v6.959h5.942a4.212,4.212,0,1,1,0,8.423H18.01v6.96a3.928,3.928,0,0,1-7.856,0Z" stroke="none"/><path d="M 14.08230018615723 28.19770050048828 C 15.14517974853516 28.19770050048828 16.0098991394043 27.33298110961914 16.0098991394043 26.27009963989258 L 16.0098991394043 17.31040000915527 L 23.95170021057129 17.31040000915527 C 25.17140007019043 17.31040000915527 26.16370010375977 16.31850051879883 26.16370010375977 15.09930038452148 C 26.16370010375977 13.87960052490234 25.17140007019043 12.88730049133301 23.95170021057129 12.88730049133301 L 16.0098991394043 12.88730049133301 L 16.0098991394043 3.928500175476074 C 16.0098991394043 2.86512017250061 15.14517974853516 2.000000238418579 14.08230018615723 2.000000238418579 C 13.01891994476318 2.000000238418579 12.15380001068115 2.86512017250061 12.15380001068115 3.928500175476074 L 12.15380001068115 12.88730049133301 L 4.211999893188477 12.88730049133301 C 2.992300033569336 12.88730049133301 2 13.87960052490234 2 15.09930038452148 C 2 16.31850051879883 2.992300033569336 17.31040000915527 4.211999893188477 17.31040000915527 L 12.15380001068115 17.31040000915527 L 12.15380001068115 26.27009963989258 C 12.15380001068115 27.33298110961914 13.01891994476318 28.19770050048828 14.08230018615723 28.19770050048828 M 14.08230018615723 30.19770050048828 C 11.9124002456665 30.19770050048828 10.15380001068115 28.43910026550293 10.15380001068115 26.27009963989258 L 10.15380001068115 19.31040000915527 L 4.211999893188477 19.31040000915527 C 1.885500073432922 19.31040000915527 5.187987994759169e-08 17.42490005493164 5.187987994759169e-08 15.09930038452148 C 5.187987994759169e-08 12.77280044555664 1.885500073432922 10.88730049133301 4.211999893188477 10.88730049133301 L 10.15380001068115 10.88730049133301 L 10.15380001068115 3.928500175476074 C 10.15380001068115 1.758600234985352 11.9124002456665 2.502441418528178e-07 14.08230018615723 2.502441418528178e-07 C 16.25130081176758 2.502441418528178e-07 18.0098991394043 1.758600234985352 18.0098991394043 3.928500175476074 L 18.0098991394043 10.88730049133301 L 23.95170021057129 10.88730049133301 C 26.27820014953613 10.88730049133301 28.16370010375977 12.77280044555664 28.16370010375977 15.09930038452148 C 28.16370010375977 17.42490005493164 26.27820014953613 19.31040000915527 23.95170021057129 19.31040000915527 L 18.0098991394043 19.31040000915527 L 18.0098991394043 26.27009963989258 C 18.0098991394043 28.43910026550293 16.25130081176758 30.19770050048828 14.08230018615723 30.19770050048828 Z" stroke="none" fill="#e6484b"/></g><g transform="translate(28.164 0)" fill="#e6484b"><path d="M 7.04069995880127 14.09930038452148 C 6.509260177612305 14.09930038452148 6.076900005340576 13.66654014587402 6.076900005340576 13.13460063934326 L 6.076900005340576 9.655200004577637 L 6.076900005340576 8.655200004577637 L 5.076900005340576 8.655200004577637 L 2.106000185012817 8.655200004577637 C 1.496150135993958 8.655200004577637 1.00000011920929 8.159049987792969 1.00000011920929 7.549200057983398 C 1.00000011920929 6.939350128173828 1.496150135993958 6.44320011138916 2.106000185012817 6.44320011138916 L 5.076900005340576 6.44320011138916 L 6.076900005340576 6.44320011138916 L 6.076900005340576 5.44320011138916 L 6.076900005340576 1.963800191879272 C 6.076900005340576 1.432360172271729 6.509260177612305 1.000000238418579 7.04069995880127 1.000000238418579 C 7.572639942169189 1.000000238418579 8.005399703979492 1.432360172271729 8.005399703979492 1.963800191879272 L 8.005399703979492 5.44320011138916 L 8.005399703979492 6.44320011138916 L 9.005399703979492 6.44320011138916 L 11.97630023956299 6.44320011138916 C 12.58615016937256 6.44320011138916 13.08230018615723 6.939350128173828 13.08230018615723 7.549200057983398 C 13.08230018615723 8.159049987792969 12.58615016937256 8.655200004577637 11.97630023956299 8.655200004577637 L 9.005399703979492 8.655200004577637 L 8.005399703979492 8.655200004577637 L 8.005399703979492 9.655200004577637 L 8.005399703979492 13.13460063934326 C 8.005399703979492 13.66654014587402 7.572639942169189 14.09930038452148 7.04069995880127 14.09930038452148 Z" stroke="none"/><path d="M 11.97630023956299 7.655200004577637 C 12.03474998474121 7.655200004577637 12.08230018615723 7.607650279998779 12.08230018615723 7.549200057983398 C 12.08230018615723 7.490750312805176 12.03474998474121 7.44320011138916 11.97630023956299 7.44320011138916 L 2.106000185012817 7.44320011138916 C 2.047550201416016 7.44320011138916 2 7.490750312805176 2 7.549200057983398 C 2 7.607650279998779 2.047550201416016 7.655200004577637 2.106000185012817 7.655200004577637 L 11.97630023956299 7.655200004577637 M 7.04069995880127 15.09930038452148 C 5.956200122833252 15.09930038452148 5.076900005340576 14.22000026702881 5.076900005340576 13.13460063934326 L 5.076900005340576 9.655200004577637 L 2.106000185012817 9.655200004577637 C 0.9432001113891602 9.655200004577637 9.307861148499796e-08 8.712900161743164 9.307861148499796e-08 7.549200057983398 C 9.307861148499796e-08 6.38640022277832 0.9432001113891602 5.44320011138916 2.106000185012817 5.44320011138916 L 5.076900005340576 5.44320011138916 L 5.076900005340576 1.963800191879272 C 5.076900005340576 0.8793001770973206 5.956200122833252 1.92260742437611e-07 7.04069995880127 1.92260742437611e-07 C 8.126100540161133 1.92260742437611e-07 9.005399703979492 0.8793001770973206 9.005399703979492 1.963800191879272 L 9.005399703979492 5.44320011138916 L 11.97630023956299 5.44320011138916 C 13.13910007476807 5.44320011138916 14.08230018615723 6.38640022277832 14.08230018615723 7.549200057983398 C 14.08230018615723 8.712900161743164 13.13910007476807 9.655200004577637 11.97630023956299 9.655200004577637 L 9.005399703979492 9.655200004577637 L 9.005399703979492 13.13460063934326 C 9.005399703979492 14.22000026702881 8.126100540161133 15.09930038452148 7.04069995880127 15.09930038452148 Z" stroke="none" fill="#e6484b"/></g></svg>