<svg xmlns="http://www.w3.org/2000/svg" width="59.801" height="23.546" viewBox="0 0 59.801 23.546"><g transform="translate(-172.158 -756.562)"><g transform="translate(172.504 757.062)"><path d="M37.71.5h44.6a2.868,2.868,0,0,1,2.86,2.86V20.186a2.868,2.868,0,0,1-2.86,2.86H37.71" transform="translate(-26.218 -0.5)" stroke="#000" stroke-miterlimit="10" stroke-width="1"/><g transform="translate(0.154 0)"><path d="M11.958,23.046H3.267A2.77,2.77,0,0,1,.5,20.277V3.27A2.77,2.77,0,0,1,3.267.5h8.692" transform="translate(-0.497 -0.5)" fill="#00a664" stroke="#00a664" stroke-miterlimit="10" stroke-width="1"/></g><g transform="translate(0 7.557)"><path d="M109.875,35.357a2.509,2.509,0,0,1-1.676-.6v2.364h-1.324V31.141H108.2v.444a2.772,2.772,0,0,1,1.676-.551,3.384,3.384,0,0,1,2.266.737,1.828,1.828,0,0,1,.678,1.42c0,1.277-1.178,2.166-2.944,2.166m1.163-3.069a1.712,1.712,0,0,0-1.235-.421c-.991,0-1.6.52-1.6,1.285a1.171,1.171,0,0,0,.378.872,1.694,1.694,0,0,0,1.227.423,1.719,1.719,0,0,0,1.235-.423,1.2,1.2,0,0,0,0-1.736Z" transform="translate(-74.31 -29.288)" fill="#fff"/><path d="M142.831,26.509a1.133,1.133,0,0,1-.72-.222.472.472,0,0,1-.218-.377.5.5,0,0,1,.218-.385,1.173,1.173,0,0,1,.707-.223,1.192,1.192,0,0,1,.719.223.5.5,0,0,1,.216.385c0,.333-.413.6-.923.6m.714,4.782h-1.451V27.156h1.451Z" transform="translate(-98.658 -25.302)" fill="#fff"/><path d="M151.877,35.378a3.23,3.23,0,0,1-2.388-.742l-.079-.075.1-.055.894-.477.056-.035.057.046a2.238,2.238,0,0,0,1.358.457,1.592,1.592,0,0,0,.978-.248.225.225,0,0,0,.1-.183c0-.339-.675-.441-1.161-.513l-.17-.018c-1.007-.146-2.052-.394-2.052-1.239a1,1,0,0,1,.4-.77,3.746,3.746,0,0,1,2.132-.551,2.828,2.828,0,0,1,2.115.7l.069.075-1.008.495-.067.036-.057-.044a1.663,1.663,0,0,0-1.122-.377c-.462,0-.852.129-.852.367,0,.359.7.449,1.2.514.079.018.16.018.216.037.984.147,1.961.413,1.961,1.257,0,.991-1.475,1.348-2.685,1.348" transform="translate(-103.885 -29.247)" fill="#fff"/><path d="M42.03,35.241v-2.4a.823.823,0,0,0-.288-.667,1.517,1.517,0,0,0-.951-.268c-.958,0-1.236.449-1.236,1.231v2.1H38.115v-4.1h1.441v.467a2.388,2.388,0,0,1,1.7-.574,2.711,2.711,0,0,1,1.728.511,1.342,1.342,0,0,1,.491,1.079v2.617H42.03" transform="translate(-26.5 -29.288)" fill="#fff"/><path d="M56.906,29.616v-.853h.948V27.649H59.3v1.113h1.518v.853H59.3V31.5c0,.4.171.652.817.652a1.658,1.658,0,0,0,.7-.125v.844a3.7,3.7,0,0,1-1.066.134c-1.55,0-1.9-.477-1.9-1.42V29.616h-.948" transform="translate(-39.565 -26.934)" fill="#fff"/><path d="M75.207,33.876a2.725,2.725,0,0,1-2.989-.115.823.823,0,0,1-.236-.415l4.482,0c.234,0,.356-.1.356-.39a2.041,2.041,0,0,0-.62-1.388,3.624,3.624,0,0,0-2.481-.815,3.672,3.672,0,0,0-2.564.923,1.8,1.8,0,0,0-.579,1.292,1.843,1.843,0,0,0,.579,1.327,3.773,3.773,0,0,0,2.6.874,4.937,4.937,0,0,0,1.519-.222,3.129,3.129,0,0,0,.582-.268,2.427,2.427,0,0,0,.509-.4,1.507,1.507,0,0,0,.239-.326c.048-.1-.122-.076-.23-.078H75.214l-.007,0m.03-1.335H71.9a2.025,2.025,0,0,1,1.8-.921,1.941,1.941,0,0,1,1.735.725C75.527,32.514,75.372,32.541,75.237,32.541Z" transform="translate(-49.071 -29.091)" fill="#fff"/><path d="M96.571,31.143a2.951,2.951,0,0,0-.543-.059,2.7,2.7,0,0,0-1.675.751v-.644h-1.44v4.1h1.44v-2.05c0-.8.523-1.186,1.579-1.186a3.442,3.442,0,0,1,.522.052l.115.028v-.992" transform="translate(-64.602 -29.322)" fill="#fff"/><path d="M132.15,31.143a2.948,2.948,0,0,0-.543-.059,2.7,2.7,0,0,0-1.675.751v-.644h-1.44v4.1h1.44v-2.05c0-.8.523-1.186,1.58-1.186a3.446,3.446,0,0,1,.522.052l.115.028v-.992" transform="translate(-89.341 -29.322)" fill="#fff"/><path d="M172.039,33.876a2.725,2.725,0,0,1-2.989-.115.822.822,0,0,1-.236-.415l4.482,0c.235,0,.357-.1.357-.39a2.038,2.038,0,0,0-.619-1.388,3.627,3.627,0,0,0-2.482-.815,3.677,3.677,0,0,0-2.564.923,1.8,1.8,0,0,0-.579,1.292,1.845,1.845,0,0,0,.579,1.327,3.776,3.776,0,0,0,2.6.874,4.932,4.932,0,0,0,1.519-.222,3.125,3.125,0,0,0,.583-.268,2.433,2.433,0,0,0,.508-.4,1.488,1.488,0,0,0,.239-.326c.048-.1-.123-.076-.23-.078h-1.161l-.007,0m.03-1.335h-3.337a2.022,2.022,0,0,1,1.8-.921,1.94,1.94,0,0,1,1.735.725C172.359,32.514,172.2,32.541,172.069,32.541Z" transform="translate(-116.4 -29.091)" fill="#fff"/><g transform="translate(0 1.036)"><path d="M17.233,41.2a3.621,3.621,0,0,0,2.481-.817h-.833a2.766,2.766,0,0,1-1.574.366,2.709,2.709,0,0,1-2.029-.836h-.664A3.011,3.011,0,0,0,17.233,41.2Z" transform="translate(-10.159 -36.498)" fill="#fff"/><path d="M17.917,40.406a3.715,3.715,0,0,1-2.756,1.006,3.2,3.2,0,0,1-2.855-1.5h-.662a3.727,3.727,0,0,0,3.616,1.951A3.688,3.688,0,0,0,18.6,40.477a.815.815,0,0,0,.06-.094h-.721Z" transform="translate(-8.094 -36.498)" fill="#fff"/><path d="M10.831,31C10.6,29.858,9.268,28.7,7.161,28.7h0a3.9,3.9,0,0,0-3.644,2c-.01.021-.044.109-.057.148H-.008v.4h9.34c.533,0,.613-.027.673-.084a.105.105,0,0,0,.031-.088c0-.311-.749-1.755-2.878-1.755A3.027,3.027,0,0,0,4.392,30.7a1.243,1.243,0,0,0-.071.147h-.24a1.664,1.664,0,0,1,.08-.171,3.108,3.108,0,0,1,3-1.565c2.14,0,3.086,1.457,3.1,2a.264.264,0,0,1-.1.256c-.066.049-.145.094-.834.094H-.008v.422h9.8c.487,0,.835-.013.986-.2C10.881,31.559,10.9,31.346,10.831,31Zm-5.785-.3a2.708,2.708,0,0,1,2.146-.961,2.408,2.408,0,0,1,2.041.85c.048.084.06.14.038.18-.033.065-.147.076-.255.079H4.961A.866.866,0,0,1,5.046,30.7Z" transform="translate(0.008 -28.703)" fill="#fff"/></g></g><path d="M5.793,65.357a.7.7,0,0,1,0,.989.694.694,0,0,1-.987,0,.681.681,0,0,1-.2-.5.7.7,0,0,1,1.188-.492m.08-.079a.811.811,0,0,0-1.146,1.147.808.808,0,0,0,1.146,0,.81.81,0,0,0,0-1.147Zm-.454.535a.435.435,0,0,1-.149.019H5.13v-.322h.134a.4.4,0,0,1,.189.033.136.136,0,0,1,.059.13A.138.138,0,0,1,5.42,65.814Zm-.447.479H5.13v-.351h.124a.381.381,0,0,1,.175.029.217.217,0,0,1,.084.2v.071l0,.028,0,.01a.036.036,0,0,0,0,.009h.147l-.005-.011a.125.125,0,0,1-.008-.046c0-.023,0-.046,0-.066V66.1a.238.238,0,0,0-.049-.138.216.216,0,0,0-.154-.087.359.359,0,0,0,.13-.044.194.194,0,0,0,.087-.175.22.22,0,0,0-.138-.225.67.67,0,0,0-.243-.033H4.973Z" transform="translate(-3.121 -45.378)" fill="#fff"/></g></g></svg>