<svg xmlns="http://www.w3.org/2000/svg" xmlns:xlink="http://www.w3.org/1999/xlink" width="54.797" height="18.674" viewBox="0 0 54.797 18.674"><defs><clipPath id="a"><rect width="54.797" height="18.674" fill="none"/></clipPath><clipPath id="c"><path d="M1119.772,880.656c20.979-5.2,27.811-.769,27.811-.769l-2.694-3.946s-.6-.037-1.676-.037a61.316,61.316,0,0,0-23.441,4.752" transform="translate(-1119.772 -875.904)" fill="none"/></clipPath><linearGradient id="d" y1="0.385" x2="1" y2="0.345" gradientUnits="objectBoundingBox"><stop offset="0" stop-color="#ffd800"/><stop offset="0.184" stop-color="#fed400"/><stop offset="0.331" stop-color="#fdca03"/><stop offset="0.467" stop-color="#fbb907"/><stop offset="0.594" stop-color="#f9a20d"/><stop offset="0.717" stop-color="#f68314"/><stop offset="0.835" stop-color="#f25d1d"/><stop offset="0.949" stop-color="#ee3128"/><stop offset="1" stop-color="#ec1b2e"/></linearGradient></defs><g clip-path="url(#a)"><g clip-path="url(#a)"><path d="M1144.689,863.489v-.37h-1.254v-2.144h-.377v2.514Zm-2.855-.934h-.776l.2-.575c.064-.186.154-.474.183-.581.029.107.129.4.191.578Zm.728.934-.915-2.514h-.4l-.905,2.514h.392l.207-.6h1.005l.212.6Zm-2.233-2.144v-.37h-1.842v.37h.733v2.144h.377v-2.144Zm-2.337,2.144v-2.514h-.366v1.3c0,.139,0,.5,0,.592-.035-.064-.143-.251-.208-.355l-.954-1.534h-.385v2.514h.367v-1.3c0-.139,0-.488,0-.581.04.064.126.215.187.309l1,1.576Zm-2.445,0v-.366h-1.3v-.793h.722v-.366h-.722v-.621h1.243v-.366h-1.619v2.514Zm-2.636-1.752a.379.379,0,0,1-.427.4h-.733v-.807h.733a.385.385,0,0,1,.427.406m.381-.011a.726.726,0,0,0-.808-.75h-1.1v2.514h.369v-1h.568l.5,1h.434l-.513-1.028a.7.7,0,0,0,.553-.736m-4.326.011a.379.379,0,0,1-.428.4h-.732v-.807h.732a.385.385,0,0,1,.428.406m.381-.011a.726.726,0,0,0-.808-.75h-1.1v2.514h.37v-1h.568l.5,1h.434l-.513-1.028a.7.7,0,0,0,.552-.736m-3.135.83h-.776l.2-.575c.064-.186.154-.474.183-.581.029.107.129.4.191.578Zm.728.934-.915-2.514h-.4l-.9,2.514h.392l.207-.6h1.005l.212.6Zm-2.538-.442-.312-.208a.6.6,0,0,1-.552.313c-.438,0-.675-.356-.675-.92s.237-.919.675-.919a.542.542,0,0,1,.52.3l.334-.208a.9.9,0,0,0-.854-.47c-.65,0-1.063.535-1.063,1.3s.413,1.3,1.063,1.3a.957.957,0,0,0,.865-.481" transform="translate(-1093.198 -860.936)" fill="#0e1d3e"/><path d="M1095.832,869.962H1093.3v4.077H1091V862.53h5.031c2.17,0,3.962,1.2,3.962,3.65,0,2.664-1.776,3.782-4.16,3.782m.115-5.2H1093.3v2.96h2.68c1.069,0,1.644-.493,1.644-1.5s-.658-1.464-1.677-1.464" transform="translate(-1090.998 -861.047)" fill="#0e1d3e"/><path d="M1105.5,874.231v-.576a2.755,2.755,0,0,1-1.94.757,3.01,3.01,0,0,1-3.223-3.075c0-1.907,1.546-2.86,3.5-2.86a3.589,3.589,0,0,1,1.661.344v-.427a1.093,1.093,0,0,0-1.234-1.1,4.266,4.266,0,0,0-2.368.575l-.871-1.578a5.811,5.811,0,0,1,3.239-.871c2.088,0,3.5,1.085,3.5,3.025v5.787Zm0-3.617a2.632,2.632,0,0,0-1.578-.362c-.855,0-1.315.394-1.315,1.085,0,.608.345,1.151,1.315,1.151a1.858,1.858,0,0,0,1.578-.789Z" transform="translate(-1091.651 -861.249)" fill="#0e1d3e"/><path d="M1134.467,874.227a6.773,6.773,0,0,1-3.616-1l.756-1.726a6.022,6.022,0,0,0,2.992.79c.887,0,1.151-.214,1.151-.658,0-.4-.312-.593-1.266-.872-2.071-.625-3.4-1.135-3.4-2.96,0-1.792,1.43-2.564,3.453-2.564a6.875,6.875,0,0,1,3.189.838l-.723,1.792a5.6,5.6,0,0,0-2.516-.691c-.92,0-1.167.181-1.167.559,0,.362.263.51,1.792,1,1.546.509,2.877,1.069,2.877,2.794,0,1.989-1.577,2.7-3.519,2.7" transform="translate(-1093.783 -861.236)" fill="#0e1d3e"/><path d="M1129.689,870.463h-5.163a1.66,1.66,0,0,0,1.776,1.627,1.926,1.926,0,0,0,1.48-.607l1.611,1.348a4.027,4.027,0,0,1-3.091,1.4c-2.483,0-4.061-1.759-4.061-4.488,0-2.647,1.66-4.5,3.848-4.5,2.3,0,3.633,2.038,3.633,4.5,0,.328-.017.559-.033.724m-3.716-3.255a1.5,1.5,0,0,0-1.414,1.545h2.959a1.53,1.53,0,0,0-1.545-1.545" transform="translate(-1093.182 -861.236)" fill="#0e1d3e"/><path d="M1112.8,877.608h-2.235l1.35-3.522-3.354-8.632h2.5l1.414,4.159c.231.658.46,1.48.559,1.891.1-.427.328-1.217.559-1.891l1.414-4.159h2.433Z" transform="translate(-1092.226 -861.252)" fill="#0e1d3e"/><path d="M1120.909,860.953l-2.111,1.261v11.715h2.111Z" transform="translate(-1092.941 -860.937)" fill="#0e1d3e"/><path d="M1142.726,874.227a6.778,6.778,0,0,1-3.617-1l.756-1.726a6.023,6.023,0,0,0,2.992.79c.888,0,1.151-.214,1.151-.658,0-.4-.312-.593-1.267-.872-2.072-.625-3.4-1.135-3.4-2.96,0-1.792,1.432-2.564,3.453-2.564a6.881,6.881,0,0,1,3.19.838l-.724,1.792a5.594,5.594,0,0,0-2.516-.691c-.92,0-1.166.181-1.166.559,0,.362.263.51,1.791,1,1.546.509,2.877,1.069,2.877,2.794,0,1.989-1.578,2.7-3.518,2.7" transform="translate(-1094.36 -861.236)" fill="#0e1d3e"/></g><g transform="translate(26.763 13.922)"><g clip-path="url(#c)"><rect width="27.812" height="5.197" transform="translate(0 -0.445)" fill="url(#d)"/></g></g><g clip-path="url(#a)"><path d="M1148.522,866.326v-.336h.19c.111,0,.234.032.234.16s-.137.176-.26.176Zm-.21.663h.21V866.5h.153l.27.492h.255l-.314-.515a.313.313,0,0,0,.269-.318c0-.253-.215-.346-.438-.346h-.4Zm-.469-.585a.875.875,0,1,1,.872.885.878.878,0,0,1-.872-.885m-.165,0a1.039,1.039,0,1,0,1.036-1.044,1.031,1.031,0,0,0-1.036,1.044" transform="translate(-1094.959 -861.245)" fill="#0e1d3e"/></g></g></svg>