<svg xmlns="http://www.w3.org/2000/svg" xmlns:xlink="http://www.w3.org/1999/xlink" width="54.067" height="18.866" viewBox="0 0 54.067 18.866"><defs><clipPath id="a"><rect width="54.067" height="18.866" fill="none"/></clipPath></defs><g clip-path="url(#a)"><path d="M834.423,869.361l-2.045,6.066H836.7l2.063-6.066Z" transform="translate(-832.378 -861.429)" fill="#005eb8"/><path d="M839.9,865.559h1.859l1.508-4.406h-8.9l-1.478,4.391h2.664l-.926,2.748h4.344Z" transform="translate(-832.414 -860.855)" fill="#005eb8"/><g clip-path="url(#a)"><path d="M844.927,875.427h4.026s1.17-3.455,2.036-6.066h-4.041Z" transform="translate(-833.255 -861.429)" fill="#005eb8"/><path d="M839.747,875.427h4.086l2.02-6.066H841.79Z" transform="translate(-832.893 -861.429)" fill="#005eb8"/><path d="M851.508,866.6c.412-1.3-.206-1.855-.726-2.089a2.02,2.02,0,0,0-.828-.166h-2.192l1.024-3.19h-4.26l-2.4,7.14h8.834c.223-.677.418-1.271.552-1.695" transform="translate(-833.059 -860.855)" fill="#005eb8"/><path d="M858.428,868.573l1.156-3.407h-4.3a2.725,2.725,0,0,0-2.458,1.99l-.491,1.417h6.1Z" transform="translate(-833.773 -861.136)" fill="#005eb8"/><path d="M849.884,875.427h4.3l2.016-6.066h-4.216Z" transform="translate(-833.602 -861.429)" fill="#005eb8"/><path d="M857.123,875.427h4.245l2.049-6.066H859.19Z" transform="translate(-834.108 -861.429)" fill="#005eb8"/><path d="M864.9,865.166h-4.216l-1.161,3.407h4.226Z" transform="translate(-834.276 -861.136)" fill="#005eb8"/><path d="M866.361,860.833h-4.216l-1.161,3.407h4.226Z" transform="translate(-834.377 -860.833)" fill="#005eb8"/><path d="M862.373,875.427h4.26l1.989-6.066h-4.211Z" transform="translate(-834.475 -861.429)" fill="#005eb8"/><path d="M870.414,868.27l1.156-3.407h-1.6l.278-.732h2.034l1.1-3.3h-4.392c-1.932,0-2.576,2.449-2.576,2.449l-1.676,4.988h5.672Z" transform="translate(-834.64 -860.833)" fill="#005eb8"/><path d="M870.793,875.427h4.4l2.08-6.066h-4.428Z" transform="translate(-835.063 -861.429)" fill="#005eb8"/><path d="M881.815,868.294l-.1-3.436h-3.25l1.171-3.674H875.63l-1.23,3.7h-1.742l-1.134,3.407h10.29Z" transform="translate(-835.114 -860.857)" fill="#005eb8"/><path d="M889.994,865.181h-4.577l-2.253,3.392h4.543Z" transform="translate(-835.927 -861.137)" fill="#005eb8"/><path d="M879.253,873.89l-4.069,6.256h4.362l7.27-10.785h-8.171Z" transform="translate(-835.37 -861.429)" fill="#005eb8"/><path d="M874.2,879.985a.968.968,0,0,1-.985.984.978.978,0,1,1,.006-1.956.965.965,0,0,1,.979.972m-1.767,0a.784.784,0,0,0,.789.807.77.77,0,0,0,.765-.8.777.777,0,1,0-1.553-.007m.605.539h-.19V879.5a1.939,1.939,0,0,1,.354-.031.474.474,0,0,1,.318.08.259.259,0,0,1-.091.459v.012a.314.314,0,0,1,.165.25.736.736,0,0,0,.079.251h-.2a.8.8,0,0,1-.086-.263c-.024-.116-.091-.165-.232-.165h-.122Zm0-.575h.128c.135,0,.263-.043.263-.159,0-.1-.068-.171-.245-.171a.761.761,0,0,0-.147.012Z" transform="translate(-835.162 -862.103)" fill="#005eb8"/><path d="M832.423,879.008V879a1.779,1.779,0,0,1,1.857-1.774,1.924,1.924,0,0,1,1.409.534l-.406.445a1.463,1.463,0,0,0-1.008-.426,1.176,1.176,0,0,0-1.188,1.21V879a1.185,1.185,0,0,0,1.188,1.219,1.443,1.443,0,0,0,1.034-.446l.406.392a1.9,1.9,0,0,1-1.461.608,1.769,1.769,0,0,1-1.831-1.764" transform="translate(-832.382 -861.978)" fill="#005eb8"/><path d="M837.818,877.261h.587l1.584,3.454h-.669l-.365-.828h-1.7l-.37.828h-.648Zm.906,2.093-.623-1.372-.617,1.372Z" transform="translate(-832.648 -861.981)" fill="#005eb8"/><path d="M840.824,877.288h1.6a1.5,1.5,0,0,1,1.04.343,1.012,1.012,0,0,1,.3.74v.01a1.041,1.041,0,0,1-.859,1.038l.972,1.3h-.746l-.885-1.2h-.792v1.2h-.633Zm1.559,1.7c.452,0,.74-.225.74-.574v-.009c0-.367-.277-.568-.746-.568h-.921v1.151Z" transform="translate(-832.969 -861.983)" fill="#005eb8"/><path d="M846.592,877.288H848.2a1.493,1.493,0,0,1,1.039.343,1.008,1.008,0,0,1,.3.74v.01a1.041,1.041,0,0,1-.859,1.038l.972,1.3H848.9l-.885-1.2h-.792v1.2h-.633Zm1.559,1.7c.453,0,.74-.225.74-.574v-.009c0-.367-.277-.568-.746-.568h-.921v1.151Z" transform="translate(-833.372 -861.983)" fill="#005eb8"/><path d="M850.812,877.288h2.67v.539h-2.037v.892h1.806v.539h-1.806v.921h2.063v.539h-2.7Z" transform="translate(-833.667 -861.983)" fill="#005eb8"/><path d="M854.628,877.288h.586l1.929,2.372v-2.372h.623v3.43h-.53l-1.986-2.44v2.44h-.622Z" transform="translate(-833.933 -861.983)" fill="#005eb8"/><path d="M859.752,877.846H858.61v-.558h2.922v.558H860.39v2.871h-.638Z" transform="translate(-834.211 -861.983)" fill="#005eb8"/><path d="M863.114,877.261h.587l1.584,3.454h-.669l-.365-.828h-1.7l-.37.828h-.648Zm.906,2.093-.622-1.372-.618,1.372Z" transform="translate(-834.416 -861.981)" fill="#005eb8"/><path d="M866.12,877.288h.633v2.881h1.893v.549H866.12Z" transform="translate(-834.736 -861.983)" fill="#005eb8"/></g></g></svg>