<svg xmlns="http://www.w3.org/2000/svg" width="105.74" height="25.445" viewBox="0 0 105.74 25.445"><g transform="translate(-1100.712 -103.535)"><g transform="translate(1100.712 103.535)"><g transform="translate(27.746 8.556)"><path d="M1131.017,113.387l10.693-.091.017,2-4.205.036.1,11.215-2.312.019-.094-11.215-4.186.035-.016-1.995Zm10.267,3.559,1.976-.016.016,1.845h.037a2.175,2.175,0,0,1,.357-.758,3.371,3.371,0,0,1,.637-.677,3.424,3.424,0,0,1,.835-.5,2.571,2.571,0,0,1,.94-.194c.243,0,.419.006.513.014s.187.027.289.035l.017,2.033c-.149-.027-.3-.045-.458-.061a3.926,3.926,0,0,0-.457-.025,2.479,2.479,0,0,0-1,.223,2.314,2.314,0,0,0-.815.631,3.179,3.179,0,0,0-.551,1.03,4.393,4.393,0,0,0-.193,1.409l.039,4.55-2.106.018-.081-9.556Zm15.37,9.437-2.07.017-.011-1.333h-.038a2.868,2.868,0,0,1-1.146,1.166,3.16,3.16,0,0,1-1.563.451,3.507,3.507,0,0,1-2.739-.909,4.116,4.116,0,0,1-.863-2.817l-.051-6.069,2.107-.018.05,5.864a2.573,2.573,0,0,0,.5,1.777,1.757,1.757,0,0,0,1.356.511,2.6,2.6,0,0,0,1.108-.214,1.878,1.878,0,0,0,.713-.557,2.12,2.12,0,0,0,.394-.823,4.091,4.091,0,0,0,.113-1.036l-.048-5.547,2.107-.018Zm3.563-3.1a1.623,1.623,0,0,0,.711,1.289,2.82,2.82,0,0,0,1.466.361,6.283,6.283,0,0,0,.671-.052,2.85,2.85,0,0,0,.707-.183,1.364,1.364,0,0,0,.547-.387.929.929,0,0,0,.191-.654.9.9,0,0,0-.3-.659,2.1,2.1,0,0,0-.713-.414,7.123,7.123,0,0,0-.99-.262c-.374-.071-.747-.152-1.13-.233a10.647,10.647,0,0,1-1.14-.308,3.492,3.492,0,0,1-.984-.495,2.221,2.221,0,0,1-.7-.8,2.5,2.5,0,0,1-.272-1.21,2.187,2.187,0,0,1,.372-1.308,2.884,2.884,0,0,1,.953-.856,4.433,4.433,0,0,1,1.291-.468,7.9,7.9,0,0,1,1.36-.142,6.31,6.31,0,0,1,1.419.147,3.666,3.666,0,0,1,1.226.5,3.03,3.03,0,0,1,.911.907,3.17,3.17,0,0,1,.469,1.357l-2.2.018a1.311,1.311,0,0,0-.7-1.01,2.834,2.834,0,0,0-1.252-.251,3.945,3.945,0,0,0-.531.042,2.876,2.876,0,0,0-.577.145,1.255,1.255,0,0,0-.454.3.719.719,0,0,0-.182.514.8.8,0,0,0,.276.623,2.26,2.26,0,0,0,.7.395,7,7,0,0,0,.99.262c.374.071.756.153,1.148.234s.757.189,1.131.307a3.408,3.408,0,0,1,.993.5,2.487,2.487,0,0,1,.706.787,2.414,2.414,0,0,1,.28,1.181,2.581,2.581,0,0,1-.379,1.449,3.1,3.1,0,0,1-1,.968,4.727,4.727,0,0,1-1.376.553,6.989,6.989,0,0,1-1.5.18,6.385,6.385,0,0,1-1.68-.191,4.1,4.1,0,0,1-1.339-.6,3.038,3.038,0,0,1-.894-1.028,3.405,3.405,0,0,1-.358-1.471l2.125-.017Zm6.9-6.557,1.594-.014-.024-2.871,2.107-.017.024,2.871,1.9-.016.013,1.576-1.9.016.043,5.109a5.415,5.415,0,0,0,.032.578,1.059,1.059,0,0,0,.135.409.6.6,0,0,0,.31.249,1.524,1.524,0,0,0,.56.079c.148,0,.3,0,.447-.013a2.424,2.424,0,0,0,.447-.07l.014,1.632c-.233.03-.465.05-.679.081a5.728,5.728,0,0,1-.681.043,4.71,4.71,0,0,1-1.343-.147,1.74,1.74,0,0,1-.8-.46,1.62,1.62,0,0,1-.4-.761,5.774,5.774,0,0,1-.13-1.052l-.048-5.64-1.594.014-.014-1.594Zm7.095-.06,1.995-.017.011,1.3h.038a2.6,2.6,0,0,1,1.23-1.2,4.07,4.07,0,0,1,1.722-.378,4.463,4.463,0,0,1,1.97.384,3.842,3.842,0,0,1,1.408,1.079,4.769,4.769,0,0,1,.844,1.615,7.071,7.071,0,0,1,.06,3.841,4.968,4.968,0,0,1-.742,1.61,3.708,3.708,0,0,1-1.277,1.12,3.815,3.815,0,0,1-1.833.435,5.149,5.149,0,0,1-.923-.076,4.039,4.039,0,0,1-.888-.263,3.2,3.2,0,0,1-.787-.469,2.928,2.928,0,0,1-.612-.666h-.038l.04,4.773-2.107.018Zm7.405,4.729a4.755,4.755,0,0,0-.179-1.257,3.384,3.384,0,0,0-.513-1.078,2.568,2.568,0,0,0-.836-.748,2.56,2.56,0,0,0-3.146.661,4.1,4.1,0,0,0-.65,2.466,4.752,4.752,0,0,0,.189,1.342,3,3,0,0,0,.54,1.058,2.507,2.507,0,0,0,.845.692,2.347,2.347,0,0,0,1.139.252,2.376,2.376,0,0,0,1.219-.309,2.6,2.6,0,0,0,.814-.772,3.177,3.177,0,0,0,.457-1.076A5.971,5.971,0,0,0,1181.618,121.4Zm3.649-8.469,2.107-.017.016,1.995-2.107.018Zm.031,3.646,2.106-.018.081,9.566-2.106.017Zm3.959-3.68,2.107-.017.111,13.211-2.106.018Zm8.682,13.4a5.214,5.214,0,0,1-2.045-.365,4.5,4.5,0,0,1-1.529-1.031,4.551,4.551,0,0,1-.955-1.586,6.158,6.158,0,0,1-.344-2.029,6.065,6.065,0,0,1,.31-2.017,4.542,4.542,0,0,1,.928-1.6,4.3,4.3,0,0,1,1.511-1.057,5.649,5.649,0,0,1,4.084-.035,4.279,4.279,0,0,1,2.483,2.618,6.064,6.064,0,0,1,.343,2.011,6.163,6.163,0,0,1-.309,2.035,4.548,4.548,0,0,1-.929,1.6,4.281,4.281,0,0,1-1.511,1.057A5.2,5.2,0,0,1,1197.939,126.3Zm-.015-1.67a2.441,2.441,0,0,0,1.219-.309,2.6,2.6,0,0,0,.842-.78,3.471,3.471,0,0,0,.485-1.086,4.809,4.809,0,0,0-.021-2.452,3.2,3.2,0,0,0-.5-1.077,2.572,2.572,0,0,0-.855-.757,2.647,2.647,0,0,0-2.443.02,2.672,2.672,0,0,0-.842.772,3.375,3.375,0,0,0-.485,1.085,5.033,5.033,0,0,0-.148,1.223,4.937,4.937,0,0,0,.169,1.229,3.262,3.262,0,0,0,.5,1.078,2.605,2.605,0,0,0,.855.767A2.339,2.339,0,0,0,1197.924,124.626Zm5.376-8.2,1.594-.014-.025-2.871,2.107-.018.025,2.872,1.9-.016.014,1.576-1.9.016.043,5.109a5.241,5.241,0,0,0,.033.578,1.066,1.066,0,0,0,.134.408.594.594,0,0,0,.31.249,1.5,1.5,0,0,0,.56.08c.149,0,.3,0,.448-.013a2.528,2.528,0,0,0,.447-.07l.014,1.632c-.233.029-.466.05-.68.08a5.351,5.351,0,0,1-.68.043,4.694,4.694,0,0,1-1.344-.147,1.744,1.744,0,0,1-.8-.46,1.614,1.614,0,0,1-.4-.761,5.774,5.774,0,0,1-.13-1.052l-.048-5.64-1.594.013-.014-1.594Z" transform="translate(-1131.008 -112.878)"/></g><path d="M1126.005,112.621l-9.659.081-3.061-9.167-2.915,9.218-9.659.072,7.87,5.621-2.915,9.208,7.774-5.744,7.861,5.612-3.061-9.158,7.765-5.744Z" transform="translate(-1100.712 -103.535)" fill="#0ab67b"/><path d="M1120.1,121.8l-.689-2.073-4.8,3.546Z" transform="translate(-1101.882 -104.899)" fill="#005325"/></g></g></svg>